# xmcd
#
# Track frame offsets:
#	150
#	10040
#	21722
#	28848
#	35785
#	53427
#	62123
#	67266
#	72769
#	80918
#	92372
#	96623
#	102785
#	110417
#	123339
#	132435
#	140671
#	153411
#	155644
#	162788
#	171950
#	178480
#	185181
#	201747
#	209830
#	214380
#	219808
#	228032
#	239695
#	244016
#	248558
#	254067
#	261474
#
# Disc length: 3648 seconds
#
# Revision: 0
# Processed by: cddbd v1.5.1PL0 Copyright (c) Steve Scherf et al.
# Submitted via: dBpowerAMP V4.0
#
DISCID=0a0e3e21
DTITLE=Brigitte Sourisse/ Jean Marc Lesage - Voyages
DYEAR=1900
DGENRE=Undefined
TTITLE0=j'aime les voyages
TTITLE1=les oiseaux migrateurs
TTITLE2=balance-toi petit bateau
TTITLE3=chanson des algues
TTITLE4=mouette raconte-nous
TTITLE5=coquillages
TTITLE6=pêcheur de crevettes
TTITLE7=pauvre Pierrot
TTITLE8=les pommiers
TTITLE9=koala
TTITLE10=les nuages
TTITLE11=une feuille d'automne
TTITLE12=les rois mages
TTITLE13=le singe sage
TTITLE14=pluies d'avril, pluies de mai
TTITLE15=souvent
TTITLE16=l'automne
TTITLE17=petit lapin
TTITLE18=si tous les poissons
TTITLE19=j'aime les voyages (instr)
TTITLE20=balance-toi petit bateau (instr)
TTITLE21=chanson des algues (instr)
TTITLE22=mouette, raconte-nous (instr)
TTITLE23=coquillages (instr)
TTITLE24=pêcheur de crevettes (instr)
TTITLE25=pauvre pierrot (instr)
TTITLE26=les pommiers (instr)
TTITLE27=koala (instr)
TTITLE28=les nuages (instr)
TTITLE29=les nuages (instr, orné)
TTITLE30=une feuille d'automne (instr)
TTITLE31=le roi  mage (instr)
TTITLE32=le singe sage (instr)
EXTD=
EXTT0=
EXTT1=
EXTT2=
EXTT3=
EXTT4=
EXTT5=
EXTT6=
EXTT7=
EXTT8=
EXTT9=
EXTT10=
EXTT11=
EXTT12=
EXTT13=
EXTT14=
EXTT15=
EXTT16=
EXTT17=
EXTT18=
EXTT19=
EXTT20=
EXTT21=
EXTT22=
EXTT23=
EXTT24=
EXTT25=
EXTT26=
EXTT27=
EXTT28=
EXTT29=
EXTT30=
EXTT31=
EXTT32=
PLAYORDER=
